<svg xmlns="http://www.w3.org/2000/svg" viewBox="0 0 808.46 179.28"><defs><style>.cls-1{fill:#ec6165;}</style></defs><g id="Capa_2" data-name="Capa 2"><g id="Capa_1-2" data-name="Capa 1"><path class="cls-1" d="M40.2,16.61Q54.72,16,66.62,16q17.92,0,29.44,2.27t18.4,9.24q6.89,7,6.89,20.57,0,15.1-8.31,25.2T90.77,86.43q5.67,17.94,12.65,29.25t14.91,14.73q-5.1,14.91-22.27,14.9-12.65,0-20.1-8.21T64.45,115.5q-4.06-13.41-9-38.31H57q13.4,0,20.67-7.46t7.26-22q0-9.81-3.77-14.63T68.69,28.31a67.28,67.28,0,0,0-6.79.19l-21.7,113H0L23.21,17Q35.67,16.6,40.2,16.61Z"/><path class="cls-1" d="M218.53,64.54q0,14.34-12.17,22.74T170,97q-3,.19-9.62.19a55.56,55.56,0,0,0-.57,7.93q0,8.3,3.59,12.36t11.89,4.06a36.3,36.3,0,0,0,14.81-3.21A24.23,24.23,0,0,0,201,109.65q4.71,2.82,4.71,9a19.77,19.77,0,0,1-5.85,14.06,37,37,0,0,1-15.57,9.34,64.84,64.84,0,0,1-20.47,3.21q-18.88,0-29.16-10.28t-10.28-31a69.3,69.3,0,0,1,7-31.13,54.52,54.52,0,0,1,21-22.74q14.06-8.59,34.63-8.59Q218.54,41.52,218.53,64.54Zm-48-4.06q-5.58,9.34-8.78,28.6,12.84,0,20.38-7.74t7.55-20q0-4.9-1.51-7.54t-5.28-2.65Q176.08,51.14,170.51,60.48Z"/><path class="cls-1" d="M293.08,41.33q16,0,23.11,9.44t7.08,27.74q0,19.06-6.89,34.15a54.84,54.84,0,0,1-20.19,23.78q-13.31,8.69-31.8,8.68a50.88,50.88,0,0,1-12.26-1.32l-5.48,31.71-37.36,3.77L235,45.29l30.95-3.77-2.45,14.53Q272.89,41.34,293.08,41.33Zm-33,91.62a18.35,18.35,0,0,0,5.29.85,11.51,11.51,0,0,0,8.87-4q3.57-4,6.32-13a177.62,177.62,0,0,0,5-24.72,188.34,188.34,0,0,0,2.26-25.29,23.89,23.89,0,0,0-1.32-9q-1.32-3.11-5.66-3.11-6.8,0-10.85,7.08a48.15,48.15,0,0,0-5.57,16.51l-9.24,52.09A13.84,13.84,0,0,0,260.05,133Z"/><path class="cls-1" d="M419.42,51.43q10.09,9.9,10.1,30.66a70.76,70.76,0,0,1-7.17,32.09,55.2,55.2,0,0,1-20.86,22.74q-13.68,8.39-32.36,8.39-40.2,0-40.2-41.14a69.31,69.31,0,0,1,7.27-32,54.42,54.42,0,0,1,21-22.46Q371,41.51,389.7,41.52,409.32,41.52,419.42,51.43Zm-45.1,11.32q-4.63,9.9-7.83,33.12a196.87,196.87,0,0,0-2.27,25.67q0,6.22,1.61,9.34C366.89,133,368.94,134,372,134q7.55,0,12.17-9.91T392,91a196.74,196.74,0,0,0,2.27-25.66c0-4.16-.51-7.27-1.51-9.34s-3-3.12-6-3.12Q378.94,52.84,374.32,62.75Z"/><path class="cls-1" d="M508,41.52q11.33,0,17.36,5.66t6,16.23q0,12.07-7.26,19.72a24.29,24.29,0,0,1-18.4,7.64,25.2,25.2,0,0,1-6.7-.85,8.5,8.5,0,0,1-4.62-2.73,40.3,40.3,0,0,0,5.47-11A38.35,38.35,0,0,0,502.17,64q0-7.93-5.85-7.93-5.47,0-9.81,7.64t-6.8,22.37l-9,55.48-38.88,3.77L451,45.29l31-3.77L479.15,60Q487.64,41.52,508,41.52Z"/><path class="cls-1" d="M582,45.29h14.72l-1.7,8.5H580.49l-11.32,59.63a46.73,46.73,0,0,0-.95,7.93,10.54,10.54,0,0,0,2.27,6.79,9,9,0,0,0,6.6,3.21,17.08,17.08,0,0,1-9,10.38,32.83,32.83,0,0,1-15.38,3.58q-9.81,0-15.76-5t-5.94-14.44q0-9,6-39.25L538,81.9l5.47-28.11H532.37l.75-5.67q22.65-6.79,44.54-23.4h8.87Z"/><path class="cls-1" d="M629.75,113.42a45.71,45.71,0,0,0-1,7.93,10.54,10.54,0,0,0,2.27,6.79,9,9,0,0,0,6.6,3.21,17,17,0,0,1-9.06,10.38,33,33,0,0,1-15.28,3.58q-9.83,0-15.76-5t-6-14.44q0-9.24,6.23-39.81l.76-3.78,7.17-37,37.93-3.77ZM645.22,4a13,13,0,0,1,5.47,11.14,12.75,12.75,0,0,1-5.75,11.13q-5.76,4-14.82,4T615.5,26.33a12.45,12.45,0,0,1-5.57-10.85,13,13,0,0,1,5.94-11.42q6-4.06,15-4.06Q639.74,0,645.22,4Z"/><path class="cls-1" d="M685.13,11.89q12.55-6.22,30.67-6.23,13.77,0,23.68,3.4t9.91,12.27A10.65,10.65,0,0,1,743.92,31a24.66,24.66,0,0,1-13,3.31A24.27,24.27,0,0,1,720,32.08a21.22,21.22,0,0,0,1.89-5.47,28.36,28.36,0,0,0,.75-6q0-6.6-5.47-6.6-4.9,0-7.74,4.81T705,32.46l-2.26,12.83H720l-1.13,8.5H701.08l-15.66,87.75-38.88,3.77,17.74-91.52h-13.4l1.7-8.5h13.21l2.83-11.13Q672.58,18.13,685.13,11.89Z"/><path class="cls-1" d="M736.56,135.5l-15.67.75q-.75-25.84-1.6-40.57t-2.36-27.74q-.95-8.69-2.74-13a13.43,13.43,0,0,0-5-6.42q8.68-7,20.95-7,8.49,0,13.31,2.92a16.31,16.31,0,0,1,6.88,8.5,56.89,56.89,0,0,1,2.83,15q.39,7.55.38,15.47V93.6l-.19,26.05a117.18,117.18,0,0,0,16.42-29.16A85.53,85.53,0,0,0,776,59.26a37.52,37.52,0,0,0-1.32-10.76q6.41-7,17-7,7.37,0,12.08,3.77t4.72,12.08q0,10-7.08,23.12A165.55,165.55,0,0,1,784.3,106a250.38,250.38,0,0,1-19.06,21.23,93.22,93.22,0,0,0-11.7,13.21Q750,145.69,750,153.62A19.29,19.29,0,0,0,752.5,163,24,24,0,0,0,759,170.6a29.19,29.19,0,0,1-10.86,6.51,40,40,0,0,1-13.11,2.17q-8.31,0-13.12-4.24c-3.21-2.83-4.81-7-4.81-12.36Q717.12,148.15,736.56,135.5Z"/></g></g></svg>