<svg xmlns="http://www.w3.org/2000/svg" viewBox="0 0 402.13 402.13"><defs><style>.cls-1{fill:#ec6165;}</style></defs><g id="Capa_2" data-name="Capa 2"><g id="Capa_1-2" data-name="Capa 1"><path class="cls-1" d="M99.89,355.55q0,12.39,4,21.58A201.11,201.11,0,0,1,82.19,38.89a41.22,41.22,0,0,1,9.49,14.4q5,12.18,7.68,36.53,4.23,36.53,6.61,77.81t4.5,113.81l43.94-2.12Q99.89,314.78,99.89,355.55Z"/><path class="cls-1" d="M261.34,35.29Q265,47.49,265,65.47q0,42.87-17.47,87.6a328.61,328.61,0,0,1-46,81.79l.53-73.05V133.22q0-22.23-1.06-43.4-2.12-26.47-7.94-42.09a45.68,45.68,0,0,0-19.32-23.82q-13.5-8.19-37.32-8.2a108.7,108.7,0,0,0-16.06,1.15A201.58,201.58,0,0,1,286.55,19,58.05,58.05,0,0,0,261.34,35.29Z"/><path class="cls-1" d="M402.13,201.06c0,111.05-90,201.07-201.06,201.07A202,202,0,0,1,172,400a111.93,111.93,0,0,0,15-4,81.78,81.78,0,0,0,30.44-18.26,67.55,67.55,0,0,1-18.26-21.44,53.77,53.77,0,0,1-7.15-26.2q0-22.23,10.06-37.06T234.87,256q25.41-24.87,53.46-59.55A464.15,464.15,0,0,0,336.24,125q15.78-29.26,19-53A200.22,200.22,0,0,1,402.13,201.06Z"/></g></g></svg>